<?xml version="1.0" standalone="no"?>
<!DOCTYPE svg PUBLIC "-//W3C//DTD SVG 20010904//EN"
 "http://www.w3.org/TR/2001/REC-SVG-20010904/DTD/svg10.dtd">
<svg version="1.0" xmlns="http://www.w3.org/2000/svg"
 width="512.000000pt" height="512.000000pt" viewBox="0 0 512.000000 512.000000"
 preserveAspectRatio="xMidYMid meet">
<metadata>
Created by potrace 1.15, written by Peter Selinger 2001-2017
</metadata>
<g transform="translate(0.000000,512.000000) scale(0.100000,-0.100000)"
fill="#000000" stroke="none">
<path d="M2415 4648 c-635 -32 -1246 -358 -1634 -872 -450 -597 -571 -1371
-326 -2087 45 -131 156 -356 232 -474 305 -466 775 -804 1308 -940 201 -51
342 -68 560 -68 294 0 561 49 815 149 859 341 1410 1154 1410 2081 0 345 -76
676 -225 979 -116 235 -255 425 -451 614 -455 439 -1035 652 -1689 618z m735
-1058 c263 -38 466 -202 547 -443 l28 -82 0 -660 0 -660 -28 -80 c-62 -178
-177 -311 -329 -384 -151 -72 -154 -72 -858 -69 -623 3 -625 3 -695 27 -170
56 -321 181 -388 322 -73 152 -70 128 -75 789 -4 644 -1 686 48 822 82 225
282 381 535 418 74 11 1139 11 1215 0z"/>
<path d="M1930 3383 c-99 -17 -205 -72 -266 -141 -34 -38 -80 -137 -93 -200
-7 -35 -11 -249 -11 -635 0 -484 3 -592 15 -640 47 -180 168 -294 354 -333 63
-13 162 -15 650 -12 572 3 576 3 641 26 129 46 228 137 270 251 37 98 41 183
37 756 -4 596 -3 589 -61 704 -35 68 -108 142 -175 175 -106 54 -127 56 -756
54 -319 0 -591 -3 -605 -5z m1310 -208 c69 -36 94 -106 61 -179 -16 -38 -29
-51 -66 -67 -73 -32 -145 -8 -181 64 -33 63 4 159 71 187 32 14 84 11 115 -5z
m-576 -170 c188 -40 357 -176 436 -350 117 -257 34 -567 -194 -730 -255 -182
-579 -159 -794 57 -190 189 -235 461 -115 700 124 248 397 380 667 323z"/>
<path d="M2403 2792 c-102 -36 -186 -113 -232 -211 -23 -50 -26 -68 -26 -171
0 -107 2 -119 29 -175 40 -80 111 -149 194 -188 62 -29 75 -32 167 -32 125 1
191 24 269 96 122 111 164 266 116 423 -34 107 -104 187 -210 239 -57 27 -77
32 -160 34 -73 3 -107 -1 -147 -15z"/>
</g>
</svg>
