<?xml version="1.0" standalone="no"?>
<!DOCTYPE svg PUBLIC "-//W3C//DTD SVG 20010904//EN"
 "http://www.w3.org/TR/2001/REC-SVG-20010904/DTD/svg10.dtd">
<svg version="1.0" xmlns="http://www.w3.org/2000/svg"
 width="512.000000pt" height="512.000000pt" viewBox="0 0 512.000000 512.000000"
 preserveAspectRatio="xMidYMid meet">
<metadata>
Created by potrace 1.15, written by Peter Selinger 2001-2017
</metadata>
<g transform="translate(0.000000,512.000000) scale(0.100000,-0.100000)"
fill="#000000" stroke="none">
<path d="M2395 4614 c-314 -36 -525 -97 -766 -220 -211 -108 -370 -226 -539
-400 -386 -398 -583 -883 -583 -1439 0 -556 197 -1041 583 -1439 169 -174 328
-292 539 -400 414 -212 887 -277 1350 -185 858 171 1512 866 1636 1741 19 134
19 432 0 566 -147 1034 -1026 1793 -2062 1781 -70 -1 -141 -4 -158 -5z m-488
-900 c115 -55 169 -188 131 -318 -16 -55 -109 -148 -164 -164 -126 -37 -255
17 -317 133 -30 56 -30 173 0 230 27 52 100 119 144 133 83 26 128 23 206 -14z
m1405 -668 c153 -33 262 -115 328 -250 66 -131 69 -169 70 -738 l0 -498 -219
0 -220 0 -3 448 c-3 407 -5 451 -22 496 -26 68 -89 129 -148 144 -144 36 -275
-20 -329 -141 -24 -52 -24 -53 -27 -499 l-3 -448 -214 0 -215 0 0 730 0 730
215 0 215 0 0 -102 0 -103 33 40 c138 169 326 236 539 191z m-1302 -756 l0
-730 -220 0 -220 0 0 730 0 730 220 0 220 0 0 -730z"/>
</g>
</svg>
